<svg width="86" height="72" viewBox="0 0 86 72" fill="none" xmlns="http://www.w3.org/2000/svg">
<g id="Group 16">
<path id="Stroke 3" d="M60.6353 7.70088L61.0944 7.24076V7.24076L60.6353 7.70088ZM59.717 7.70099L60.1762 8.161V8.161L59.717 7.70099ZM64.9452 12.0014L65.4043 11.5412V11.5412L64.9452 12.0014ZM65.1361 12.4614L65.7861 12.4613V12.4613L65.1361 12.4614ZM64.9453 12.9215L64.4861 12.4615L64.9453 12.9215ZM35.4952 42.3212L35.036 41.8612L35.4952 42.3212ZM30.2686 42.3209L30.7285 41.8616L30.7282 41.8612L30.2686 42.3209ZM30.2682 42.3205L30.7278 41.8608L30.7274 41.8604L30.2682 42.3205ZM17.1891 29.2637L16.7298 29.7237L16.7298 29.7237L17.1891 29.2637ZM17.1891 28.3437L16.7298 27.8837L16.7298 27.8837L17.1891 28.3437ZM21.4969 24.0432L21.0377 23.5832L21.4969 24.0432ZM22.4154 24.0432L22.8746 23.5832H22.8746L22.4154 24.0432ZM32.8811 34.4911L32.4219 34.9511C32.6756 35.2044 33.0866 35.2044 33.3403 34.9511L32.8811 34.4911ZM33.3403 35.8695L33.7995 36.3295L33.3403 35.8695ZM60.1763 9.07935L60.6354 8.61923C60.3817 8.36601 59.9708 8.36606 59.7171 8.61934L60.1763 9.07935ZM32.4219 35.8695L31.9626 36.3295L32.4219 35.8695ZM21.9561 25.4217L22.4154 24.9617C22.1616 24.7083 21.7507 24.7083 21.4969 24.9617L21.9561 25.4217ZM18.5683 28.8037L18.1091 28.3437C17.987 28.4656 17.9183 28.6311 17.9183 28.8037C17.9183 28.9763 17.987 29.1418 18.1091 29.2637L18.5683 28.8037ZM31.1874 41.4012L30.7282 41.8612L30.7289 41.862L31.1874 41.4012ZM31.1882 41.402L31.6482 40.9428L31.6467 40.9413L31.1882 41.402ZM34.5768 41.4012L35.036 41.8612L34.5768 41.4012ZM63.5659 12.4616L64.0252 12.9216C64.1473 12.7997 64.2159 12.6341 64.2159 12.4615C64.2159 12.2889 64.1472 12.1234 64.025 12.0015L63.5659 12.4616ZM56.5125 11.8928L56.0349 12.3337L56.0349 12.3337L56.5125 11.8928ZM56.5529 11.9411L57.0709 11.5484L57.0709 11.5484L56.5529 11.9411ZM60.2494 16.8174L59.7314 17.21L59.7314 17.2101L60.2494 16.8174ZM60.2851 16.8696L59.7314 17.21V17.21L60.2851 16.8696ZM59.1942 17.5773L59.7482 17.2375C59.7371 17.2193 59.725 17.2017 59.7122 17.1847L59.1942 17.5773ZM55.536 12.7516L56.054 12.359C56.0412 12.3421 56.0276 12.3258 56.0132 12.3103L55.536 12.7516ZM52.182 16.1791L51.7007 16.616L51.7007 16.616L52.182 16.1791ZM52.2314 16.2407L51.7007 16.616L51.7007 16.616L52.2314 16.2407ZM55.7979 21.2853L55.2672 21.6606L55.2672 21.6606L55.7979 21.2853ZM55.8398 21.3529L55.2672 21.6605L55.2672 21.6606L55.8398 21.3529ZM54.7133 22.0031L55.2864 21.6963C55.2737 21.6726 55.2596 21.6498 55.244 21.6278L54.7133 22.0031ZM51.1929 17.0237L51.7237 16.6485C51.7083 16.6267 51.6915 16.6059 51.6735 16.5861L51.1929 17.0237ZM35.1966 12.3378C35.1966 11.6198 34.6146 11.0378 33.8966 11.0378V12.3378H35.1966ZM35.1966 14.3654V12.3378H33.8966V14.3654H35.1966ZM33.8966 15.6654C34.6146 15.6654 35.1966 15.0833 35.1966 14.3654H33.8966V14.3654V15.6654ZM32.5966 14.3654C32.5966 15.0833 33.1786 15.6654 33.8966 15.6654V14.3654V14.3654H32.5966ZM32.5966 12.3378V14.3654H33.8966V12.3378H32.5966ZM33.8966 11.0378C33.1786 11.0378 32.5966 11.6198 32.5966 12.3378H33.8966V11.0378ZM35.1966 52.8892C35.1966 52.1712 34.6146 51.5892 33.8966 51.5892V52.8892H35.1966ZM35.1966 54.9167V52.8892H33.8966V54.9167H35.1966ZM33.8966 56.2167C34.6146 56.2167 35.1966 55.6347 35.1966 54.9167H33.8966V56.2167ZM32.5966 54.9167C32.5966 55.6347 33.1786 56.2167 33.8966 56.2167V54.9167H32.5966ZM32.5966 52.8892V54.9167H33.8966V52.8892H32.5966ZM33.8966 51.5892C33.1786 51.5892 32.5966 52.1712 32.5966 52.8892H33.8966V51.5892ZM52.1759 33.3411C51.458 33.3411 50.8759 33.9231 50.8759 34.6411H52.1759V33.3411ZM54.207 33.3411H52.1759V34.6411H54.207V33.3411ZM55.507 34.6411C55.507 33.9231 54.9249 33.3411 54.207 33.3411V34.6411H55.507ZM54.207 35.9411C54.9249 35.9411 55.507 35.359 55.507 34.6411H54.207V35.9411ZM52.1759 35.9411H54.207V34.6411H52.1759V35.9411ZM50.8759 34.6411C50.8759 35.359 51.458 35.9411 52.1759 35.9411V34.6411H50.8759ZM11.5552 33.3411C10.8372 33.3411 10.2552 33.9231 10.2552 34.6411H11.5552V33.3411ZM13.5862 33.3411H11.5552V34.6411H13.5862V33.3411ZM14.8862 34.6411C14.8862 33.9231 14.3042 33.3411 13.5862 33.3411V34.6411H14.8862ZM13.5862 35.9411C14.3042 35.9411 14.8862 35.359 14.8862 34.6411H13.5862V35.9411ZM11.5552 35.9411H13.5862V34.6411H11.5552V35.9411ZM10.2552 34.6411C10.2552 35.359 10.8372 35.9411 11.5552 35.9411V34.6411H10.2552ZM61.0944 7.24076C60.5869 6.73433 59.7652 6.73443 59.2577 7.24098L60.1762 8.161V8.16101L61.0944 7.24076ZM65.4043 11.5412L61.0944 7.24076L60.1762 8.161L64.4861 12.4615L65.4043 11.5412ZM65.7861 12.4613C65.786 12.1161 65.6487 11.7851 65.4043 11.5412L64.4861 12.4615L64.4861 12.4615L65.7861 12.4613ZM65.4045 13.3815C65.6488 13.1376 65.7861 12.8066 65.7861 12.4613L64.4861 12.4615L64.4861 12.4615L65.4045 13.3815ZM35.9545 42.7813L65.4045 13.3815L64.4861 12.4615L35.036 41.8612L35.9545 42.7813ZM32.8811 44.0513C33.9898 44.0513 35.1048 43.6295 35.9545 42.7812L35.036 41.8612C34.441 42.4553 33.6611 42.7513 32.8811 42.7513V44.0513ZM29.8086 42.7802C30.6571 43.6298 31.773 44.0513 32.8811 44.0513V42.7513C32.1012 42.7513 31.3215 42.4554 30.7285 41.8616L29.8086 42.7802ZM29.8086 42.7801L29.809 42.7805L30.7282 41.8612L30.7278 41.8608L29.8086 42.7801ZM16.7298 29.7237L29.8089 42.7805L30.7274 41.8604L17.6483 28.8037L16.7298 29.7237ZM16.3483 28.8037C16.3483 29.1489 16.4856 29.4798 16.7298 29.7237L17.6483 28.8037L17.6483 28.8037H16.3483ZM16.7298 27.8837C16.4856 28.1275 16.3483 28.4585 16.3483 28.8037H17.6483L17.6483 28.8037L16.7298 27.8837ZM21.0377 23.5832L16.7298 27.8837L17.6483 28.8037L21.9561 24.5032L21.0377 23.5832ZM22.8746 23.5832C22.3671 23.0766 21.5452 23.0766 21.0377 23.5832L21.9561 24.5032L22.8746 23.5832ZM33.3403 34.031L22.8746 23.5832L21.9561 24.5032L32.4219 34.9511L33.3403 34.031ZM59.2577 7.24098L32.4219 34.031L33.3403 34.9511L60.1762 8.161L59.2577 7.24098ZM33.7995 36.3295L60.6355 9.53936L59.7171 8.61934L32.8811 35.4095L33.7995 36.3295ZM31.9626 36.3295C32.4701 36.8362 33.292 36.8362 33.7995 36.3295L32.8811 35.4095H32.8811L31.9626 36.3295ZM21.4969 25.8817L31.9626 36.3295L32.8811 35.4095L22.4154 24.9617L21.4969 25.8817ZM19.0276 29.2637L22.4154 25.8817L21.4969 24.9617L18.1091 28.3437L19.0276 29.2637ZM31.6466 40.9412L19.0276 28.3437L18.1091 29.2637L30.7282 41.8612L31.6466 40.9412ZM31.6467 40.9413L31.6459 40.9405L30.7289 41.862L30.7297 41.8627L31.6467 40.9413ZM32.8811 41.4513C32.4298 41.4513 31.986 41.2811 31.6482 40.9428L30.7282 41.8612C31.3212 42.4552 32.101 42.7513 32.8811 42.7513V41.4513ZM34.1176 40.9412C33.7769 41.2813 33.332 41.4513 32.8811 41.4513V42.7513C33.6611 42.7513 34.441 42.4552 35.036 41.8612L34.1176 40.9412ZM63.1067 12.0016L34.1176 40.9412L35.036 41.8612L64.0252 12.9216L63.1067 12.0016ZM59.7172 9.53947L63.1068 12.9217L64.025 12.0015L60.6354 8.61923L59.7172 9.53947ZM32.8811 0.899951C14.7795 0.899951 0.100002 15.5512 0.100002 33.6273H1.4C1.4 16.2713 15.4954 2.19995 32.8811 2.19995V0.899951ZM56.9901 11.4519C51.0022 4.9655 42.4164 0.899951 32.8811 0.899951V2.19995C42.039 2.19995 50.283 6.10301 56.0349 12.3337L56.9901 11.4519ZM57.0709 11.5484C57.0455 11.515 57.0186 11.4828 56.9901 11.4519L56.0349 12.3337L57.0709 11.5484ZM60.7674 16.4247L57.0709 11.5484L56.0349 12.3337L59.7314 17.21L60.7674 16.4247ZM60.8388 16.5292C60.8167 16.4932 60.7929 16.4583 60.7674 16.4247L59.7314 17.2101L59.7314 17.21L60.8388 16.5292ZM65.6622 33.6273C65.6622 27.3622 63.898 21.505 60.8388 16.5292L59.7314 17.21C62.6683 21.987 64.3622 27.6095 64.3622 33.6273H65.6622ZM32.8811 66.3546C50.9826 66.3546 65.6622 51.7033 65.6622 33.6273H64.3622C64.3622 50.9833 50.2668 65.0546 32.8811 65.0546V66.3546ZM0.100002 33.6273C0.100002 51.7033 14.7795 66.3546 32.8811 66.3546V65.0546C15.4954 65.0546 1.4 50.9833 1.4 33.6273H0.100002ZM2.7 33.6273C2.7 16.9913 16.2113 3.49995 32.8811 3.49995V2.19995C15.4954 2.19995 1.4 16.2713 1.4 33.6273H2.7ZM32.8811 63.7546C16.2113 63.7546 2.7 50.2632 2.7 33.6273H1.4C1.4 50.9833 15.4954 65.0546 32.8811 65.0546V63.7546ZM63.0622 33.6273C63.0622 50.2632 49.5509 63.7546 32.8811 63.7546V65.0546C50.2668 65.0546 64.3622 50.9833 64.3622 33.6273H63.0622ZM58.6401 17.9172C61.4448 22.4896 63.0622 27.8677 63.0622 33.6273H64.3622C64.3622 27.621 62.6748 22.0085 59.7482 17.2375L58.6401 17.9172ZM55.0181 13.1443L58.6762 17.97L59.7122 17.1847L56.054 12.359L55.0181 13.1443ZM32.8811 3.49995C41.6507 3.49995 49.544 7.23116 55.0589 13.193L56.0132 12.3103C50.2623 6.0932 42.0275 2.19995 32.8811 2.19995V3.49995ZM32.8811 6.98266C18.1429 6.98266 6.19311 18.9089 6.19311 33.6273H7.49311C7.49311 19.6289 18.8588 8.28266 32.8811 8.28266V6.98266ZM52.6633 15.7423C47.7821 10.3644 40.7246 6.98266 32.8811 6.98266V8.28266C40.3431 8.28266 47.0557 11.4984 51.7007 16.616L52.6633 15.7423ZM52.7622 15.8655C52.7318 15.8225 52.6987 15.7813 52.6632 15.7422L51.7007 16.616L51.7007 16.616L52.7622 15.8655ZM56.3287 20.9101L52.7622 15.8655L51.7007 16.616L55.2672 21.6606L56.3287 20.9101ZM56.4123 21.0453C56.3872 20.9985 56.3593 20.9534 56.3287 20.9101L55.2672 21.6606L55.2672 21.6605L56.4123 21.0453ZM59.569 33.6273C59.569 29.0782 58.4267 24.794 56.4123 21.0452L55.2672 21.6606C57.1824 25.225 58.2691 29.2984 58.2691 33.6273H59.569ZM32.8811 60.2719C47.6192 60.2719 59.569 48.3457 59.569 33.6273H58.2691C58.2691 47.6256 46.9034 58.9719 32.8811 58.9719V60.2719ZM6.19311 33.6273C6.19311 48.3457 18.1429 60.2719 32.8811 60.2719V58.9719C18.8588 58.9719 7.49311 47.6256 7.49311 33.6273H6.19311ZM8.79311 33.6273C8.79311 20.349 19.5747 9.58266 32.8811 9.58266V8.28266C18.8588 8.28266 7.49311 19.6289 7.49311 33.6273H8.79311ZM32.8811 57.6719C19.5747 57.6719 8.79311 46.9056 8.79311 33.6273H7.49311C7.49311 47.6256 18.8588 58.9719 32.8811 58.9719V57.6719ZM56.969 33.6273C56.969 46.9056 46.1875 57.6719 32.8811 57.6719V58.9719C46.9034 58.9719 58.269 47.6256 58.269 33.6273H56.969ZM54.1402 22.3098C55.9451 25.6818 56.969 29.5323 56.969 33.6273H58.269C58.269 29.3129 57.1897 25.2523 55.2864 21.6963L54.1402 22.3098ZM50.6622 17.399L54.1825 22.3783L55.244 21.6278L51.7237 16.6485L50.6622 17.399ZM32.8811 9.58266C39.9479 9.58266 46.3045 12.6205 50.7123 17.4613L51.6735 16.5861C47.0296 11.4859 40.3286 8.28266 32.8811 8.28266V9.58266Z" fill="#62E0D9"/>
<g id="Group 15">
<path id="Stroke 49" fill-rule="evenodd" clip-rule="evenodd" d="M55.3676 41.4841C55.3676 43.9646 53.3528 45.9737 50.8703 45.9737C48.3878 45.9737 46.373 43.9646 46.373 41.4841C46.373 39.0036 48.3878 36.9945 50.8703 36.9945C53.3528 36.9945 55.3676 39.0036 55.3676 41.4841Z" stroke="#62E0D9" stroke-width="1.3" stroke-linejoin="round"/>
<path id="Stroke 50" fill-rule="evenodd" clip-rule="evenodd" d="M50.8703 45.9738C48.9724 45.9738 47.2578 46.5574 46.0312 47.1276C44.8574 47.6764 44.1243 48.8684 44.1243 50.1614V57.1978C44.1243 58.4369 45.1317 59.4426 46.373 59.4426V68.4218C46.373 69.661 47.3792 70.6667 48.6216 70.6667H53.1189C54.3613 70.6667 55.3676 69.661 55.3676 68.4218V59.4426C56.6088 59.4426 57.6162 58.4369 57.6162 57.1978V50.1614C57.6162 48.8684 56.8832 47.6764 55.7094 47.1276C54.4827 46.5574 52.7681 45.9738 50.8703 45.9738Z" stroke="#62E0D9" stroke-width="1.3" stroke-linecap="round" stroke-linejoin="round"/>
<path id="Stroke 51" fill-rule="evenodd" clip-rule="evenodd" d="M68.8595 41.4841C68.8595 43.9646 66.8458 45.9737 64.3622 45.9737C61.8785 45.9737 59.8649 43.9646 59.8649 41.4841C59.8649 39.0036 61.8785 36.9945 64.3622 36.9945C66.8458 36.9945 68.8595 39.0036 68.8595 41.4841Z" stroke="#62E0D9" stroke-width="1.3" stroke-linejoin="round"/>
<path id="Stroke 52" fill-rule="evenodd" clip-rule="evenodd" d="M64.3622 45.9738C62.4643 45.9738 60.7497 46.5574 59.5231 47.1276C58.3493 47.6764 57.6162 48.8684 57.6162 50.1614V57.1978C57.6162 58.4369 58.6225 59.4426 59.8649 59.4426V68.4218C59.8649 69.661 60.8723 70.6667 62.1135 70.6667H66.6108C67.8532 70.6667 68.8595 69.661 68.8595 68.4218V59.4426C70.1018 59.4426 71.1081 58.4369 71.1081 57.1978V50.1614C71.1081 48.8684 70.375 47.6764 69.2013 47.1276C67.9746 46.5574 66.26 45.9738 64.3622 45.9738Z" stroke="#62E0D9" stroke-width="1.3" stroke-linecap="round" stroke-linejoin="round"/>
<path id="Stroke 53" fill-rule="evenodd" clip-rule="evenodd" d="M82.3514 41.4841C82.3514 43.9646 80.3377 45.9737 77.8541 45.9737C75.3704 45.9737 73.3568 43.9646 73.3568 41.4841C73.3568 39.0036 75.3704 36.9945 77.8541 36.9945C80.3377 36.9945 82.3514 39.0036 82.3514 41.4841Z" stroke="#62E0D9" stroke-width="1.3" stroke-linejoin="round"/>
<path id="Stroke 54" fill-rule="evenodd" clip-rule="evenodd" d="M77.8541 45.9738C75.9562 45.9738 74.2416 46.5574 73.015 47.1276C71.8412 47.6764 71.1081 48.8684 71.1081 50.1614V57.1978C71.1081 58.4369 72.1144 59.4426 73.3568 59.4426V68.4218C73.3568 69.661 74.3642 70.6667 75.6054 70.6667H80.1027C81.3451 70.6667 82.3514 69.661 82.3514 68.4218V59.4426C83.5937 59.4426 84.6 58.4369 84.6 57.1978V50.1614C84.6 48.8684 83.8669 47.6764 82.6931 47.1276C81.4665 46.5574 79.7519 45.9738 77.8541 45.9738Z" stroke="#62E0D9" stroke-width="1.3" stroke-linecap="round" stroke-linejoin="round"/>
</g>
</g>
</svg>
