<svg width="70" height="88" viewBox="0 0 70 88" fill="none" xmlns="http://www.w3.org/2000/svg">
<g id="Group 11">
<path id="Path" fill-rule="evenodd" clip-rule="evenodd" d="M43.703 35.5013L31.4724 47.9754L22.4743 38.7981L17.9753 43.3867L31.4724 57.1527L52.079 36.1369L47.5789 31.5482L43.703 35.5013Z" stroke="#62E0D9" stroke-width="3.06383"/>
<path id="Path_2" fill-rule="evenodd" clip-rule="evenodd" d="M56.9164 9.84991C51.5736 9.84991 46.263 8.71421 41.4342 6.36638C39.1215 5.25252 36.7552 3.83291 34.7102 2.06384C32.6652 3.83291 30.299 5.25252 27.9852 6.36638C23.1574 8.71421 17.8468 9.84991 12.504 9.84991H1.91489V50.4401C1.91489 57.5491 4.73081 64.3851 9.74058 69.333C17.0973 76.5829 34.7102 86.007 34.7102 86.007C34.7102 86.007 52.3231 76.5829 59.6788 69.333C64.6896 64.3851 67.5056 57.5491 67.5056 50.4401V9.84991H56.9164Z" stroke="#62E0D9" stroke-width="3.06383"/>
<path id="Path_3" fill-rule="evenodd" clip-rule="evenodd" d="M58.94 24.5321V50.7808C58.94 55.5234 57.0374 60.1219 53.7215 63.3958C49.1089 67.9429 38.5936 74.1652 34.7113 76.3951C30.8247 74.163 20.3008 67.9331 15.6936 63.3925C12.3798 60.1197 10.4804 55.5234 10.4804 50.7808V18.9268H12.504C19.2109 18.9268 25.8385 17.4285 31.6705 14.5936C32.7166 14.0902 33.738 13.5497 34.7113 12.984C35.6835 13.5486 36.7114 14.0935 37.7745 14.6067C43.5895 17.4329 50.2085 18.9268 56.9164 18.9268H58.94V24.5321Z" stroke="#62E0D9" stroke-width="3.06383"/>
</g>
</svg>
